<svg width="28" height="28" viewBox="0 0 28 28" fill="none" xmlns="http://www.w3.org/2000/svg">
<path fill-rule="evenodd" clip-rule="evenodd" d="M8.56362 11.7655L14.0014 6.32773L19.4438 11.7701L22.6077 8.60628L14.0014 0L5.39976 8.60162L8.56362 11.7655ZM0 14.0012L3.16304 10.8381L6.32608 14.0012L3.16304 17.1642L0 14.0012ZM14.0013 21.6763L8.56358 16.2385L5.39506 19.3977L5.39972 19.4024L14.0013 28.004L22.6076 19.3977L19.4437 16.2339L14.0013 21.6763ZM21.6738 14.0033L24.8368 10.8403L27.9999 14.0033L24.8368 17.1663L21.6738 14.0033ZM14.0014 10.7918L17.2119 14.0023L14.0014 17.2174L10.791 14.0069V13.9976L11.3548 13.4338L11.6297 13.1636L14.0014 10.7918Z" fill="white"/>
</svg>
