<svg width="83" height="26" viewBox="0 0 83 26" fill="none" xmlns="http://www.w3.org/2000/svg">
<path d="M76.837 0.857056H71.7179C70.1703 0.857056 68.9798 1.33325 68.2656 2.88087L58.5037 25.1428H65.4084C65.4084 25.1428 66.5989 22.1666 66.837 21.4523C67.5513 21.4523 74.337 21.4523 75.2894 21.4523C75.5275 22.2856 76.1227 25.0237 76.1227 25.0237H82.3132L76.837 0.857056ZM68.7418 16.4523C69.337 15.0237 71.3608 9.66658 71.3608 9.66658C71.3608 9.78563 71.956 8.23801 72.1941 7.40468L72.6703 9.54753C72.6703 9.54753 73.9798 15.3809 74.2179 16.5713H68.7418V16.4523Z" fill="url(#paint0_linear_2036_234)"/>
<path d="M58.9796 17.1667C58.9796 22.1667 54.4558 25.5 47.432 25.5C44.4558 25.5 41.5986 24.9048 40.051 24.1905L41.0034 18.7143L41.8367 19.0714C43.9796 20.0238 45.4082 20.381 48.0272 20.381C49.932 20.381 51.9558 19.6667 51.9558 18C51.9558 16.9286 51.1225 16.2143 48.5034 15.0238C46.0034 13.8333 42.6701 11.9286 42.6701 8.47619C42.6701 3.71429 47.3129 0.5 53.8605 0.5C56.3605 0.5 58.5034 0.97619 59.8129 1.57143L58.8605 6.80952L58.3844 6.33333C57.1939 5.85714 55.6463 5.38095 53.3844 5.38095C50.8844 5.5 49.6939 6.57143 49.6939 7.52381C49.6939 8.59524 51.1225 9.42857 53.3844 10.5C57.1939 12.2857 58.9796 14.3095 58.9796 17.1667Z" fill="url(#paint1_linear_2036_234)"/>
<path d="M0.883545 1.09558L1.00259 0.619385H11.2407C12.6693 0.619385 13.7407 1.09558 14.0978 2.64319L16.3597 13.3575C14.0978 7.64319 8.85974 3.00034 0.883545 1.09558Z" fill="#6529F7" fill-opacity="0.7"/>
<path d="M30.7647 0.857085L20.4076 25.0238H13.3838L7.4314 4.78566C11.7171 7.52375 15.2885 11.8095 16.5981 14.7857L17.3123 17.2857L23.7409 0.738037H30.7647V0.857085Z" fill="url(#paint2_linear_2036_234)"/>
<path d="M33.5033 0.738037H40.051L35.8843 25.0238H29.3367L33.5033 0.738037Z" fill="url(#paint3_linear_2036_234)"/>
<defs>
<linearGradient id="paint0_linear_2036_234" x1="58.5037" y1="0.857056" x2="85.1961" y2="3.93716" gradientUnits="userSpaceOnUse">
<stop stop-color="#5656F2"/>
<stop offset="1" stop-color="#3333DC"/>
</linearGradient>
<linearGradient id="paint1_linear_2036_234" x1="40.051" y1="0.5" x2="62.3081" y2="2.57078" gradientUnits="userSpaceOnUse">
<stop stop-color="#5656F2"/>
<stop offset="1" stop-color="#3333DC"/>
</linearGradient>
<linearGradient id="paint2_linear_2036_234" x1="7.4314" y1="0.738037" x2="33.6036" y2="3.69771" gradientUnits="userSpaceOnUse">
<stop stop-color="#5656F2"/>
<stop offset="1" stop-color="#3333DC"/>
</linearGradient>
<linearGradient id="paint3_linear_2036_234" x1="29.3367" y1="0.738037" x2="41.4755" y2="1.36836" gradientUnits="userSpaceOnUse">
<stop stop-color="#5656F2"/>
<stop offset="1" stop-color="#3333DC"/>
</linearGradient>
</defs>
</svg>
