<svg width="416" height="24" viewBox="0 0 416 24" fill="none" xmlns="http://www.w3.org/2000/svg">
<path d="M9.84848 20.9152V0L2.22894 0C1.42688 0 0.686523 0.431876 0.686523 1.54242C0.686523 2.65296 1.42688 3.08483 2.22894 3.08483H6.76364V20.9152H2.22894C1.42688 20.9152 0.686523 21.347 0.686523 22.4576C0.686523 23.5681 1.42688 24 2.22894 24H14.3832C15.1852 24 15.9256 23.5681 15.9256 22.4576V14.6838C15.9256 13.7892 15.5246 13.1414 14.3832 13.1414C13.2418 13.1414 12.8408 13.7892 12.8408 14.6838V20.9152H9.84848Z" fill="#696974"/>
<path d="M25.9737 13.5424H34.6729C35.6909 13.5424 36.4004 13.3882 37.1717 12.6787C38.0354 11.8766 38.128 11.0437 38.128 9.93316V3.60926C38.128 2.49872 38.0354 1.66581 37.1717 0.863753C36.4004 0.154242 35.6909 0 34.6729 0L24.4313 0C23.6292 0 22.8889 0.431876 22.8889 1.54242C22.8889 2.65296 23.6292 3.08483 24.4313 3.08483H35.0431V10.4576H26.3747C24.0611 10.4576 22.8889 11.6298 22.8889 13.9434V24H36.5855C37.3876 24 38.128 23.5681 38.128 22.4576C38.128 21.347 37.3876 20.9152 36.5855 20.9152H25.9737V13.5424Z" fill="#696974"/>
<path d="M57.2455 3.08483V8.20566C57.2455 9.93316 56.5668 10.4576 55.7031 10.4576H49.6568C48.8547 10.4576 48.1144 10.8895 48.1144 12C48.1144 13.1105 48.8547 13.5424 49.6568 13.5424H55.7031C56.5668 13.5424 57.2455 14.0668 57.2455 15.7943V20.9152H46.6337C45.8316 20.9152 45.0912 21.347 45.0912 22.4576C45.0912 23.5681 45.8316 24 46.6337 24H57.2455C59.0038 24 60.3303 22.6735 60.3303 20.9152V14.9923C60.3303 13.7584 60.0835 12.8638 59.1272 12C60.0835 11.1362 60.3303 10.2416 60.3303 9.00771V3.08483C60.3303 1.32648 59.0038 0 57.2455 0L46.6337 0C45.8316 0 45.0912 0.431876 45.0912 1.54242C45.0912 2.65296 45.8316 3.08483 46.6337 3.08483H57.2455Z" fill="#696974"/>
<path d="M71.9208 13.0797V1.54242C71.9208 0.771209 71.5507 0 70.3784 0C69.2062 0 68.836 0.771209 68.836 1.54242V16.1645H77.9054V22.4576C77.9054 23.4447 78.3373 24 79.4478 24C80.5584 24 80.9903 23.4447 80.9903 22.4576V16.1645C81.7923 16.1645 82.5327 15.7326 82.5327 14.6221C82.5327 13.5116 81.7923 13.0797 80.9903 13.0797V4.16453C80.9903 3.39332 80.6201 2.62211 79.4478 2.62211C78.2756 2.62211 77.9054 3.39332 77.9054 4.16453V13.0797H71.9208Z" fill="#696974"/>
<path d="M117.837 3.08483H125.395C126.197 3.08483 126.937 2.65296 126.937 1.54242C126.937 0.431876 126.197 0 125.395 0L114.752 0V13.5424H123.853V20.9152H116.727C116.233 20.9152 115.523 20.4833 115.092 20.2982L114.166 19.8972C113.827 19.7429 113.549 19.6504 113.179 19.6504C112.377 19.6504 111.698 20.3907 111.698 21.1928C111.698 22.2725 112.624 22.5501 113.457 22.9203L114.629 23.4447C115.4 23.7841 115.863 24 116.665 24H123.513C124.624 24 125.426 23.8766 126.197 22.9512C126.845 22.1799 126.937 21.5013 126.937 20.545V13.9434C126.937 12.8638 126.845 12.1234 125.981 11.3213C125.241 10.6118 124.5 10.4576 123.513 10.4576H117.837V3.08483Z" fill="#696974"/>
<path d="M136.985 3.08483C137.88 3.08483 138.528 2.46787 138.528 1.54242C138.528 0.740361 137.88 0 137.078 0L135.227 0C134.147 0 133.901 0.832905 133.901 1.54242V22.0566C133.901 23.4756 134.456 24 135.906 24H147.135C148.523 24 149.14 23.5064 149.14 22.0566V15.1465C149.14 13.7275 148.831 13.0797 147.289 13.0797H136.985V3.08483ZM146.055 16.1645V20.9152H136.985V16.1645H146.055Z" fill="#696974"/>
<path d="M168.257 3.08483V7.3419C168.257 8.69923 168.319 8.66838 167.301 9.56298L163.044 13.2339C162.273 13.9126 162.242 14.0051 162.242 15.0231V22.4576C162.242 23.4447 162.674 24 163.784 24C164.895 24 165.327 23.4447 165.327 22.4576V16.473C165.327 15.3933 165.388 15.3316 166.19 14.6221L170.509 10.8895C171.373 10.1491 171.342 10.0257 171.342 8.94602V0L157.645 0C156.658 0 156.103 0.863753 156.103 1.54242V3.08483C156.103 3.7635 156.658 4.62725 157.645 4.62725C158.633 4.62725 159.188 3.7635 159.188 3.08483H168.257Z" fill="#696974"/>
<path d="M184.475 10.4576V3.08483H187.375V10.4576H184.475ZM182.933 0C181.884 0 181.39 0.740361 181.39 1.54242V10.4576C180.434 10.4576 179.694 10.7969 179.138 11.3213C178.583 11.8458 178.305 12.617 178.305 13.5733V20.9152C178.305 22.7969 179.478 24 181.39 24H190.46C192.372 24 193.544 22.7969 193.544 20.9152V13.5733C193.544 12.617 193.267 11.8458 192.712 11.3213C192.156 10.7969 191.416 10.4576 190.46 10.4576V1.54242C190.46 0.740361 189.966 0 188.917 0L182.933 0ZM181.39 20.9152V13.5424H190.46V20.9152H181.39Z" fill="#696974"/>
<path d="M234.864 20.9152C233.97 20.9152 233.322 21.5321 233.322 22.4576C233.322 23.2905 233.939 24 234.864 24H236.407C237.332 24 237.949 23.2905 237.949 22.4576V1.54242C237.949 0.740361 237.271 0 236.407 0L224.253 0C223.389 0 222.71 0.740361 222.71 1.54242V9.43959C222.71 10.2416 223.389 10.982 224.253 10.982H234.864V20.9152ZM225.795 7.89717V3.08483H234.864V7.89717H225.795Z" fill="#696974"/>
<path d="M247.997 0C246.301 0 244.912 1.38818 244.912 3.08483V20.9152C244.912 22.6427 246.239 24 247.997 24H257.067C258.825 24 260.152 22.6427 260.152 20.9152V3.08483C260.152 1.38818 258.763 0 257.067 0L247.997 0ZM247.997 20.9152V3.08483H257.067V20.9152H247.997Z" fill="#696974"/>
<path d="M270.2 0C268.503 0 267.115 1.38818 267.115 3.08483V20.9152C267.115 22.6427 268.441 24 270.2 24H279.269C281.027 24 282.354 22.6427 282.354 20.9152V3.08483C282.354 1.38818 280.966 0 279.269 0L270.2 0ZM270.2 20.9152V3.08483H279.269V20.9152H270.2Z" fill="#696974"/>
<path d="M292.402 0C290.705 0 289.317 1.38818 289.317 3.08483V20.9152C289.317 22.6427 290.644 24 292.402 24H301.471C303.23 24 304.556 22.6427 304.556 20.9152V3.08483C304.556 1.38818 303.168 0 301.471 0L292.402 0ZM292.402 20.9152V3.08483H301.471V20.9152H292.402Z" fill="#696974"/>
<path d="M336.807 0C335.11 0 333.722 1.38818 333.722 3.08483V20.9152C333.722 22.6427 335.048 24 336.807 24H345.876C347.634 24 348.961 22.6427 348.961 20.9152V3.08483C348.961 1.38818 347.573 0 345.876 0L336.807 0ZM336.807 20.9152V3.08483H345.876V20.9152H336.807Z" fill="#696974"/>
<path d="M359.009 0C357.312 0 355.924 1.38818 355.924 3.08483V20.9152C355.924 22.6427 357.251 24 359.009 24H368.078C369.837 24 371.163 22.6427 371.163 20.9152V3.08483C371.163 1.38818 369.775 0 368.078 0L359.009 0ZM359.009 20.9152V3.08483H368.078V20.9152H359.009Z" fill="#696974"/>
<path d="M381.211 0C379.515 0 378.127 1.38818 378.127 3.08483V20.9152C378.127 22.6427 379.453 24 381.211 24H390.281C392.039 24 393.366 22.6427 393.366 20.9152V3.08483C393.366 1.38818 391.977 0 390.281 0L381.211 0ZM381.211 20.9152V3.08483H390.281V20.9152H381.211Z" fill="#696974"/>
<path d="M403.414 0C401.717 0 400.329 1.38818 400.329 3.08483V20.9152C400.329 22.6427 401.655 24 403.414 24H412.483C414.241 24 415.568 22.6427 415.568 20.9152V3.08483C415.568 1.38818 414.18 0 412.483 0L403.414 0ZM403.414 20.9152V3.08483H412.483V20.9152H403.414Z" fill="#696974"/>
</svg>
