<svg width="33" height="32" viewBox="0 0 33 32" fill="none" xmlns="http://www.w3.org/2000/svg">
<path d="M4.80005 12.3C5.20005 12.8 5.50005 13.4 5.70005 14C5.90005 14.6 6.00005 15.3 6.00005 16C6.00005 16.7 5.90005 17.4 5.70005 18C5.50005 18.6 5.20005 19.2 4.80005 19.7C4.30005 20.4 4.40005 21.4 5.10005 21.9C5.80005 22.4 6.80005 22.3 7.30005 21.6C7.90005 20.8 8.30005 20 8.70005 19C9.10005 18 9.20005 17 9.20005 16C9.20005 15 9.00005 14 8.70005 13C8.40005 12.1 7.90005 11.2 7.30005 10.4C6.80005 9.7 5.80005 9.6 5.10005 10.1C4.40005 10.6 4.30005 11.6 4.80005 12.3Z" fill="url(#paint0_linear_2036_221)"/>
<path d="M10.3 9.4C11.5 11.3 12.2 13.6 12.2 16C12.2 18.4 11.5 20.7 10.3 22.6C9.80005 23.3 10.1 24.3 10.8 24.8C11.6 25.3 12.5 25 13 24.3C14.5 21.9 15.4 19.1 15.4 16C15.4 13 14.5 10.1 13 7.7C12.5 7 11.5 6.7 10.8 7.2C10.1 7.7 9.80005 8.6 10.3 9.4Z" fill="url(#paint1_linear_2036_221)"/>
<path d="M16.1 6.4C17.8 9.2 18.7 12.5 18.7 16C18.7 19.5 17.7 22.8 16.1 25.6C15.7 26.4 15.9 27.3 16.7 27.8C17.5 28.2 18.4 28 18.9 27.2C20.9 23.9 22 20.1 22 16C22 11.9 20.9 8.1 18.9 4.8C18.5 4 17.5 3.8 16.7 4.2C15.9 4.7 15.7 5.6 16.1 6.4Z" fill="url(#paint2_linear_2036_221)"/>
<path d="M21.9 3.4C24 7.1 25.3 11.4 25.3 16C25.3 20.6 24.1 24.9 21.9 28.6C21.5 29.4 21.7 30.3 22.5 30.8C23.3 31.2 24.2 31 24.7 30.2C27.1 26 28.5 21.2 28.5 16C28.5 10.8 27.1 6 24.7 1.8C24.3 1 23.3 0.8 22.5 1.2C21.7 1.6 21.5 2.6 21.9 3.4Z" fill="url(#paint3_linear_2036_221)"/>
<defs>
<linearGradient id="paint0_linear_2036_221" x1="4.48755" y1="1" x2="31.5259" y2="3.54726" gradientUnits="userSpaceOnUse">
<stop stop-color="#5656F2"/>
<stop offset="1" stop-color="#3333DC"/>
</linearGradient>
<linearGradient id="paint1_linear_2036_221" x1="4.48755" y1="1" x2="31.5259" y2="3.54726" gradientUnits="userSpaceOnUse">
<stop stop-color="#5656F2"/>
<stop offset="1" stop-color="#3333DC"/>
</linearGradient>
<linearGradient id="paint2_linear_2036_221" x1="4.48755" y1="1" x2="31.5259" y2="3.54726" gradientUnits="userSpaceOnUse">
<stop stop-color="#5656F2"/>
<stop offset="1" stop-color="#3333DC"/>
</linearGradient>
<linearGradient id="paint3_linear_2036_221" x1="4.48755" y1="1" x2="31.5259" y2="3.54726" gradientUnits="userSpaceOnUse">
<stop stop-color="#5656F2"/>
<stop offset="1" stop-color="#3333DC"/>
</linearGradient>
</defs>
</svg>
