<svg width="28" height="27" viewBox="0 0 28 27" fill="none" xmlns="http://www.w3.org/2000/svg">
<path d="M24.9225 0H2.97644V5.29819H11.3004V13.0856H16.5985V5.29819H24.9225V0Z" fill="white"/>
<path d="M14.0001 13.9153C7.11432 13.9153 1.53175 12.8256 1.53175 11.4811C1.53175 10.1368 7.11409 9.04682 14.0001 9.04682C20.8859 9.04682 26.4683 10.1368 26.4683 11.4811C26.4683 12.8256 20.8859 13.9153 14.0001 13.9153ZM28 11.8869C28 10.1533 21.7321 8.74808 14.0001 8.74808C6.26837 8.74808 0 10.1533 0 11.8869C0 13.4136 4.86038 14.6855 11.301 14.9673V26.1464H16.5987V14.9717C23.0889 14.6987 28 13.4214 28 11.8869Z" fill="white"/>
</svg>
